<?xml version="1.0" encoding="UTF-8"?>
<svg id="_레이어_1" data-name="레이어 1" xmlns="http://www.w3.org/2000/svg" xmlns:xlink="http://www.w3.org/1999/xlink" viewBox="0 0 100 100">
  <defs>
    <style>
      .cls-1 {
        fill: #1c1a00;
      }

      .cls-2 {
        fill: #130301;
      }

      .cls-3 {
        fill: url(#_무제_그라디언트_107-2);
      }

      .cls-4 {
        fill: #fff;
      }

      .cls-5 {
        fill: url(#_무제_그라디언트_107);
      }

      .cls-6 {
        fill: #fad5a1;
      }

      .cls-7 {
        fill: #260001;
      }

      .cls-8 {
        fill: #ea5023;
      }
    </style>
    <linearGradient id="_무제_그라디언트_107" data-name="무제 그라디언트 107" x1="38.02" y1="29.85" x2="66.74" y2="29.85" gradientUnits="userSpaceOnUse">
      <stop offset="0" stop-color="#c2441f"/>
      <stop offset=".2" stop-color="#cd4720"/>
      <stop offset=".68" stop-color="#e24d22"/>
      <stop offset="1" stop-color="#ea5023"/>
    </linearGradient>
    <linearGradient id="_무제_그라디언트_107-2" data-name="무제 그라디언트 107" x1="68.39" y1="30.84" x2="91.75" y2="30.84" xlink:href="#_무제_그라디언트_107"/>
  </defs>
  <path class="cls-6" d="M38,124.54l32.05-63.54c-7.04.67-14.97-.77-22.52-4.57-7.55-3.81-13.42-9.33-17.06-15.39L-1.58,104.58l39.58,19.96Z"/>
  <circle class="cls-8" cx="54.69" cy="43.1" r="34.08"/>
  <ellipse class="cls-4" cx="80.17" cy="41.04" rx="11.56" ry="15.72"/>
  <path class="cls-2" d="M88.24,38.38c0,6.21-4.07,11.25-9.09,11.25s-9.09-5.03-9.09-11.25,4.07-4,9.09-4,9.09-2.21,9.09,4Z"/>
  <ellipse class="cls-4" cx="52.31" cy="40.48" rx="13.34" ry="16.23"/>
  <path class="cls-2" d="M64.53,37.58c0,6.65-4.43,12.04-9.9,12.04s-9.9-5.39-9.9-12.04,4.43-6.24,9.9-6.24,9.9-.41,9.9,6.24Z"/>
  <path class="cls-8" d="M63.69,51.58s5.02-5.59,7.73-3.16c4.01,3.61-.51,7.02-2.49,6.93l-5.23-3.76Z"/>
  <path class="cls-1" d="M63.53,51.44c1.8-2.26,5.7-5.91,8.52-3.26,1.35,1.13,2.13,3.31,1.18,4.96-.85,1.53-2.47,2.91-4.33,2.47-.27-.08-.23-.46.03-.52,1.22-.54,2.53-1.34,3.16-2.53.67-1.25.07-2.55-.9-3.5-.98-1.13-2.46-.66-3.65-.04-1.34.68-2.5,1.73-3.69,2.71-.18.17-.47-.09-.32-.29h0Z"/>
  <path class="cls-7" d="M54.61,63.35c2.6-1.33,5.29-2.35,8.23-2.72.58-.05,1.29-.07,1.87.17,2.37.89,3.94,3.44,3.81,5.9,0,0-.26.02-.26.02-.61-2.24-2.1-4.27-4.37-4.83-3.08.03-6.16,1.11-9.24,1.59,0,0-.04-.12-.04-.12h0Z"/>
  <path class="cls-5" d="M38.02,36.61s2.13-15.18,15.55-13.38c13.43,1.8,13.17,12.77,13.17,12.77"/>
  <path class="cls-3" d="M68.39,36.12s3.24-13.49,13.75-10.8,9.59,11.39,9.59,11.39"/>
</svg>